<?xml version="1.0" encoding="UTF-8"?><svg id="a" xmlns="http://www.w3.org/2000/svg" viewBox="0 0 56.91 63.33"><defs><style>.b{fill:#8fcac4;}.c{fill:#6da3c2;}</style></defs><path class="c" d="M1.23,62.12c-.82-.8-1.23-1.79-1.23-2.96s.41-2.15,1.23-2.93c.82-.78,1.85-1.17,3.09-1.17s2.21,.39,3.01,1.17c.8,.78,1.2,1.76,1.2,2.93s-.4,2.16-1.2,2.96c-.8,.8-1.8,1.2-3.01,1.2s-2.27-.4-3.09-1.2Z"/><path class="c" d="M36.91,46.39l-8.18-8.13c3.16-1.23,5.58-3.09,7.27-5.59,1.69-2.5,2.53-5.48,2.53-8.94s-.79-6.29-2.37-8.75c-1.58-2.45-3.85-4.34-6.81-5.66-2.96-1.32-6.43-1.97-10.42-1.97H5.33c-1.54,0-2.81,.48-3.81,1.45-1.01,.96-1.51,2.17-1.51,3.62v.03H0V48.12c0,1.17,.43,2.16,1.25,2.96,.82,.8,1.85,1.2,3.09,1.2s2.21-.4,3.01-1.2c.8-.8,1.2-1.79,1.2-2.96v-8.15h10.39c.79,0,1.38-.02,1.78-.07l11.06,11.21c.64,.72,1.44,1.09,2.36,1.13,.93,.04,1.77-.28,2.52-.97,.73-.67,1.11-1.47,1.16-2.4,.04-.93-.25-1.76-.89-2.49Zm-18.37-13.45H8.55V14.59h9.99c3.73,0,6.55,.79,8.48,2.37,1.93,1.58,2.89,3.84,2.89,6.77s-.97,5.21-2.89,6.81c-1.93,1.6-4.76,2.4-8.48,2.4Z"/><path class="b" d="M20.21,63.33c-.79,0-1.6-.01-2.41-.04-2.02-.06-3.61-1.75-3.55-3.77,.06-2.02,1.74-3.62,3.77-3.55,8.31,.25,14.74-.83,19.68-3.29,4.68-2.34,8.01-5.98,10.18-11.14,2.47-5.87,2.27-12.89-.54-19.27-3.14-7.12-8.95-12.51-16.37-15.16-1.9-.68-2.9-2.78-2.21-4.68,.68-1.9,2.78-2.9,4.68-2.21,9.2,3.29,16.71,10.26,20.61,19.11,3.61,8.21,3.83,17.34,.59,25.06-5.35,12.74-16.62,18.95-34.42,18.95Z"/></svg>